<?xml version="1.0" encoding="utf-8"?>
<!-- Generator: Adobe Illustrator 23.0.6, SVG Export Plug-In . SVG Version: 6.00 Build 0)  -->
<svg version="1.1" id="Capa_1" xmlns="http://www.w3.org/2000/svg" xmlns:xlink="http://www.w3.org/1999/xlink" x="0px" y="0px"
	 viewBox="0 0 512 512" style="enable-background:new 0 0 512 512;" xml:space="preserve">
<style type="text/css">
	.st0{fill-rule:evenodd;clip-rule:evenodd;fill:#9E7B52;}
	.st1{fill-rule:evenodd;clip-rule:evenodd;fill:#50FFC9;}
</style>
<g>
	<path class="st0" d="M395,149.6l20.2,10.8l8.3,4.4c0.6,0.3,1.2,0.6,1.8,0.8c8,3.2,17.4-0.1,21.6-7.9c4.5-8.4,1.3-18.9-7.1-23.4
		l-3.7-2l-9.5-5.1l-1.7-0.9l-7.9-4.2l-8-4.3l-8.5-4.5l-4.3-2.3c-8.4-4.5-18.9-1.3-23.4,7.1c-4.5,8.4-1.3,18.9,7.1,23.4l0.3,0.2
		L395,149.6z"/>
	<path class="st0" d="M416.9,122.1l7.9,4.2l1.7,0.9l9.5,5.1l52.8-78c7.5-11,4.3-25.6-4.9-34.9c-2.1-2.2-4.6-4.1-7.4-5.5
		c-12.1-6.5-27.8-4.2-36.3,5.5c-1.7,1.9-3.1,4.2-4.1,6.7l-35.7,87.1l8.5,4.5L416.9,122.1z"/>
	<path class="st1" d="M340.7,501.7c117,0,159.1-58.4,159.1-147.8v-33.8c0-11.1-7.7-28.4-31.6-28.4H42.9c-9.4,0-16.4,2.7-21.3,6.6
		c-7.5,6.1-10.3,15-10.3,21.8V354c0,24.7,3.2,47,10.3,66.4c18.7,50.7,64.1,81.3,148.8,81.3H340.7z"/>
	<path class="st0" d="M241.4,364.3c0,34.1,40.8,33.5,45.4,9.1c0.2-0.8,0.3-1.7,0.4-2.6c0.1-1.3,0.1-2.6,0-4.1
		c1.4-18.9,18.9-20.7,28.6-12.6c3.6,3.1,6.1,7.5,6.2,13c0,4.1,1.6,7.7,4.1,10.4c9.6,10.6,32.9,9.7,32.9-15v-70.8H241.4V364.3z"/>
</g>
<path d="M468.1,281.5h-44.5c6.6-37.2,9.9-79.9,11.3-104.6c8.6-1.1,16.6-6.1,21-14.3c3.5-6.5,4.2-13.9,2-21c-1.4-4.7-4-8.9-7.6-12.2
	l46.9-69.3c5.6-8.3,7.3-18.5,4.8-28.6c-2.8-11.2-10.5-21.1-20.7-26.6c-10.2-5.5-22.8-6.4-33.6-2.5C438,5.9,430.4,13,426.7,22.2
	l-31.7,77.3c-12.1-3.2-25.2,2.2-31.3,13.6c-3.5,6.5-4.2,13.9-2.1,21c0.8,2.5,1.9,4.9,3.3,7.1c-29.2,25.4-92.2,82.5-110.9,117.3
	c-4.1,7.7-7.4,15.5-9.7,23.1h-2.7c0,0,0,0,0,0s0,0,0,0h-67.1c-5.7,0-10.3,4.6-10.3,10.3c0,5.7,4.6,10.3,10.3,10.3h56.9v62.2
	c0,14.8,6.4,26.7,17.5,32.8c4.9,2.7,10.5,4,16.1,4c6.4,0,12.8-1.8,18.3-5.3c9.8-6.3,15.1-16.9,14.5-29.1c0.7-7.2,4.6-7.1,6.1-7
	c3.3,0.1,8.1,2.5,8.1,7.4c0.1,16.7,15.3,27.1,29.3,27.1h0.1c13.5,0,28.1-10,28.1-31.7v-60.5h1.8h0.1h0h40h0.1h56.9
	c20.7,0,21.3,16.3,21.3,18.1V354c0,44.8-10.7,77.6-32.7,100.2c-24.1,24.7-63.2,37.3-116.1,37.3H170.4c-52.9,0-91.9-12.5-116.1-37.3
	c-22-22.6-32.8-55.4-32.8-100.2v-33.8c0-1.9,0.6-18.1,21.3-18.1h48.8c5.7,0,10.3-4.6,10.3-10.3s-4.6-10.3-10.3-10.3H42.9
	C12.2,281.5,1,304.6,1,320.2V354c0,104.9,57,158,169.4,158h170.3C453,512,510,458.8,510,354v-33.8
	C510,304.6,498.9,281.5,468.1,281.5z M386.3,281.5c9.3-24.3,18.6-52.4,26-76.2c-1.9,23.3-5,51.3-9.6,76.2H386.3z M359,281.5
	C359,281.5,359,281.5,359,281.5C359,281.5,359,281.5,359,281.5h-43.7c15.6-32.6,55-83.7,82.5-118.8l5.2,2.8
	c-8,27.2-23.7,78.2-38.7,116H359z M445.7,30c2-4.9,6.1-7.2,9.1-8.3c5.5-2,11.8-1.5,17,1.3c5.1,2.7,9,7.8,10.4,13.4
	c0.8,3.2,1.1,7.8-1.9,12.2l-47.6,70.3l-19.3-10.3L445.7,30z M381.7,122.9c1.3-2.3,3.7-3.7,6.3-3.7c1.1,0,2.2,0.3,3.2,0.8l4.3,2.3
	c0,0,0.1,0,0.1,0.1l39.3,21.1c1.6,0.9,2.8,2.4,3.4,4.2c0.6,1.8,0.4,3.7-0.5,5.3c-1.8,3.4-6.1,4.7-9.5,2.9c0,0,0,0,0,0l-5.9-3.2
	l-37.8-20.2c-1.6-0.9-2.8-2.4-3.4-4.2C380.7,126.4,380.9,124.5,381.7,122.9z M272,268.2c13.6-25.4,58.5-69.5,100.4-106.4
	c-30.4,39.1-67,88.1-79.5,119.7h-27C267.6,277.1,269.6,272.7,272,268.2z M348.7,362.5c0,7.4-2.6,11.1-7.6,11.1c0,0,0,0,0,0
	c-3.6,0-8.8-2.4-8.8-6.7c0,0,0-0.1,0-0.1c-0.2-16.8-14.5-27.3-28.1-27.7c-12.6-0.4-25.8,7.8-27.2,26.7c0,0.5,0,1,0,1.4
	c0.4,6.4-2.5,9.6-5,11.2c-4,2.5-9.4,2.8-13.4,0.5c-5.7-3.1-6.9-9.8-6.9-14.8v-62.2h0.3c0,0,0,0,0,0c0,0,0,0,0.1,0h48.3h0.1h48.3
	L348.7,362.5L348.7,362.5z"/>
<path d="M133,302.1h0.2c5.7,0,10.3-4.6,10.3-10.3c0-5.7-4.6-10.3-10.3-10.3H133c-5.7,0-10.3,4.6-10.3,10.3
	C122.7,297.5,127.3,302.1,133,302.1z"/>
</svg>
