<?xml version="1.0" encoding="utf-8"?>
<!-- Generator: Adobe Illustrator 23.0.6, SVG Export Plug-In . SVG Version: 6.00 Build 0)  -->
<svg version="1.1" id="Capa_1" xmlns="http://www.w3.org/2000/svg" xmlns:xlink="http://www.w3.org/1999/xlink" x="0px" y="0px"
	 viewBox="0 0 512 512" style="enable-background:new 0 0 512 512;" xml:space="preserve">
<style type="text/css">
	.st0{fill:#50FFC9;}
	.st1{fill:#231F20;}
	.st2{fill:#9E7B52;}
</style>
<g>
	<path class="st0" d="M143.7,191.7c-30.7-4.2-66.4,9.1-91.1,33.8l-41.2,41.2c-4.7,4.7-5.6,11.9-2.3,17.6c3.2,5.6,10,8.5,16.4,6.8
		c26.2-7,60.8-9.4,69.3-2.8L143.7,191.7z"/>
	<path class="st1" d="M97.3,299.4l-7-5.3c-4.9-3.7-35.1-3.4-63,4.1c-9.6,2.6-19.7-1.6-24.6-10.2c-4.9-8.5-3.5-19.4,3.5-26.4
		l41.2-41.2c26.2-26.2,64.4-40.3,97.3-35.9l10.2,1.4L97.3,299.4z M132.2,198.3c-25.9,0-54.1,12.1-74.4,32.4l-41.2,41.2
		c-2.3,2.3-2.8,5.9-1.2,8.8c1.6,2.8,5.1,4.2,8.2,3.4c19.5-5.2,50.9-9.5,67.7-5.1L132.2,198.3C132.2,198.3,132.2,198.3,132.2,198.3z"
		/>
</g>
<g>
	<path class="st0" d="M319.4,368.5l-96.7,46.7c5.4,7.3,5,30.6-1.3,73.1c-0.9,6.3,2.3,12.4,7.9,15.1c5.6,2.8,12.4,1.7,16.9-2.7
		l41.2-41.2C310.6,436.1,323.2,400.4,319.4,368.5z"/>
	<path class="st1" d="M235.8,512.2c-3.3,0-6.7-0.8-9.9-2.4c-8.4-4.2-13.2-13.4-11.8-22.7c7.9-53.6,4.5-65.2,2.7-67.7l-5.2-7.1
		l113.8-54.9l1.2,10.1c4.1,34.1-9.3,72.1-34.2,96.9l-41.2,41.2C247,510,241.4,512.2,235.8,512.2z M232.1,418.7
		c2.5,9.8,2.7,28.7-3.5,70.6c-0.5,3.1,1.1,6.2,3.9,7.6c2.8,1.4,6.2,0.9,8.4-1.3l41.2-41.2c19.3-19.3,30.7-47.6,30.6-74.5
		L232.1,418.7z"/>
</g>
<g>
	<path class="st2" d="M237.2,420.1c-34,18.3-38.3,19.4-43.5,22.9c-5.8,3.7-13.2,2.9-18.1-2.1L72.5,337.9c-4.7-4.7-5.8-12.4-2.1-18.1
		c3.5-5.2,3.9-8.5,22.5-43.9l40.8-0.4l103.1,103.1L237.2,420.1z"/>
	<path class="st1" d="M185.9,452.6c-5.6,0-11.2-2.2-15.5-6.5L67.3,343c-7.2-7.2-8.5-18.7-3-27.2l0.1-0.2c1.3-1.9,2.2-3.7,4.4-8.3
		c2.8-5.8,7.6-15.6,17.6-34.9l2-3.9l48.3-0.5L244,375.4l0.5,49l-3.9,2.1c-18.7,10.1-28.5,15-34.4,17.9c-4.6,2.3-6.5,3.3-8.5,4.6
		l-0.2,0.1C194,451.5,190,452.6,185.9,452.6z M76.5,323.7c-1.7,2.8-1.3,6.6,1.1,9l103.1,103.1c2.5,2.5,6.1,2.9,9,1.1
		c2.7-1.8,5.2-3.1,10.1-5.5c5.4-2.7,14.1-7,30.1-15.6l-0.3-34.3l-98.8-98.8L97.3,283c-8.6,16.5-12.8,25.2-15.4,30.6
		C79.5,318.6,78.4,320.9,76.5,323.7z"/>
</g>
<g>
	<path class="st2" d="M237.2,420.1c-34,18.3-38.3,19.4-43.5,22.9c-5.8,3.7-13.2,2.9-18.1-2.1L124,389.4l61.9-61.9l50.9,50.9
		L237.2,420.1z"/>
	<path class="st1" d="M185.9,452.6c-5.6,0-11.2-2.2-15.5-6.5l-56.7-56.7l72.2-72.2l58.2,58.2l0.5,49l-3.9,2.1
		c-18.7,10.1-28.5,15-34.4,17.9c-4.6,2.3-6.5,3.3-8.5,4.6l-0.2,0.1C194,451.5,190,452.6,185.9,452.6z M134.3,389.4l46.4,46.4
		c2.5,2.5,6.1,2.9,9,1.1c2.7-1.8,5.2-3.1,10.1-5.5c5.4-2.7,14.1-7,30.1-15.6l-0.3-34.3l-43.7-43.7L134.3,389.4z"/>
</g>
<g>
	<path class="st0" d="M237.2,420.1L92.9,275.8c71.5-135,157.5-219.4,257.3-252.4l70.1,69.7l68.5,68.5
		C455.8,261,371.6,347.5,237.2,420.1z"/>
	<path class="st1" d="M235.9,429.1l-152-152l2.5-4.8c36-67.9,76.1-123.8,119.4-166.2c43.5-42.7,91.3-72.9,142.1-89.6l4.3-1.4
		l73.3,72.8l71.6,71.7l-1.4,4.3c-33.5,101.1-119.3,189.4-255,262.7L235.9,429.1z M101.8,274.5l136.7,136.7
		c127.6-69.9,209-153.1,241.9-247.6l-65.2-65.2l-66.9-66.5C253.6,64.6,170.7,146.2,101.8,274.5z"/>
</g>
<g>
	<path class="st2" d="M375.3,138.1l-0.6-0.6c-28.5-28.5-74.6-28.5-103.1,0c-28.5,28.5-28.5,74.6,0,103.1l0.6,0.6
		c28.5,27.6,74.2,27.6,102.5-0.6C403,212.3,403,166.5,375.3,138.1z"/>
	<path class="st1" d="M323.2,269c-20.2,0-40.5-7.5-56-22.6l-0.7-0.7C251.3,230.6,243,210.4,243,189c0-21.4,8.3-41.6,23.5-56.7
		c15.1-15.1,35.3-23.5,56.7-23.5c0,0,0,0,0,0c21.4,0,41.6,8.3,56.7,23.5l0.7,0.7c30.4,31.3,30.1,81.9-0.7,112.7
		C364.3,261.2,343.8,269,323.2,269z M277.4,236c25.7,24.9,67,24.6,92.2-0.6c25.2-25.2,25.5-66.5,0.6-92.2l-0.6-0.6
		c-12.4-12.4-28.9-19.2-46.4-19.2c-17.5,0-34,6.8-46.4,19.2c-12.4,12.4-19.2,28.9-19.2,46.4c0,17.5,6.8,34,19.2,46.4L277.4,236z"/>
</g>
<g>
	<path class="st2" d="M488.7,161.6c-31.5-2.3-65.4-17.1-92.8-44.1l-0.6-0.6c-27.6-27.6-43.1-61.7-45.2-93.4c9.5-3.3,19.2-6,28.9-8.2
		c35.3-8,72.2-9.9,110.5-5.8c3.7,0.4,7.2,2.3,9.3,5.2c2.1,2.1,3.5,4.7,3.7,7.8c4.3,38.1,2.1,75-6,110.3
		C494.3,142.4,491.8,151.9,488.7,161.6z"/>
	<path class="st1" d="M493.9,169.3l-5.7-0.4c-34.6-2.5-70.1-19.3-97.4-46.2l-0.7-0.7c-27.8-27.8-45-63.6-47.3-98.1l-0.4-5.5l5.2-1.8
		c9.1-3.2,18.8-5.9,29.6-8.5c35.7-8.2,73.7-10.1,113-5.9c5.7,0.6,10.8,3.4,14.1,7.7c3.2,3.4,5.1,7.5,5.4,11.9
		c4.3,38,2.2,75.9-6.1,112.6c-2.6,11.3-5.2,20.6-8,29.5L493.9,169.3z M358,28.5c3.4,29.3,18.7,59.3,42.5,83.2l0.6,0.6
		c23.3,22.9,53,37.9,82.4,41.4c2-6.9,4-14.2,6-22.7c8-35.1,10-71.4,5.8-107.8l0-0.3c-0.1-1.1-0.6-2.2-1.6-3.2l-0.4-0.4l-0.4-0.5
		c-0.8-1.1-2.4-2-4.1-2.1c-37.6-4-74-2.2-108.1,5.6C372.5,24.2,365,26.3,358,28.5z"/>
</g>
<g>
	<path class="st2" d="M488.7,161.6c-31.5-2.3-65.4-17.1-92.8-44.1L498.8,14.6c2.1,2.1,3.5,4.7,3.7,7.8c4.3,38.1,2.1,75-6,110.3
		C494.3,142.4,491.8,151.9,488.7,161.6z"/>
	<path class="st1" d="M493.9,169.3l-5.7-0.4c-34.6-2.5-70.1-19.3-97.4-46.2l-5.2-5.2L498.8,4.3l5.2,5.2c3.5,3.5,5.5,7.7,5.8,12.3
		c4.3,38,2.2,75.9-6.1,112.6c-2.6,11.3-5.2,20.6-8,29.5L493.9,169.3z M406.4,117.3c22.4,20.1,49.9,33.1,77.1,36.5
		c2-6.9,4-14.2,6-22.7c7.7-33.6,9.8-68.3,6.3-103.1L406.4,117.3z"/>
</g>
<g>
	<path class="st0" d="M234.7,291.9c-0.2-3.5-1.6-6.6-4.1-9.1c-2.5-3.3-6.4-5.6-10.5-5.6c-53.6-0.4-65.6,18.6-68.7,21.6
		c-89.3,89.3-90.3,133.2-90.3,137.7c0.2,3.9,1.6,7.4,4.3,10.1c0.2,0.2,0.4,0.4,0.8,0.4c2.1,2.1,4.9,3.3,8,3.5
		c7.4,0.8,49.3-0.2,139-89.9C233.5,340.5,234.9,321.8,234.7,291.9z"/>
	<path class="st1" d="M76.9,458.1c-1.3,0-2.4-0.1-3.2-0.2c-4.2-0.3-8.1-1.9-11.2-4.4c-0.8-0.4-1.5-0.9-2.1-1.6
		c-3.9-3.9-6.1-9.1-6.5-14.9l0-0.4c0-4.7,1.2-18,12.5-40.4c15.1-30.1,42-64.6,80-102.5c0.1-0.2,0.3-0.4,0.6-0.6
		c5.1-5.8,20.5-23.6,73.3-23.1c6,0,12,3,16,8.1c3.6,3.7,5.6,8.4,5.9,13.4l0,0.4c0.2,30.3-1.3,51.8-23.6,74.1
		C135.5,448.8,92.1,458.1,76.9,458.1z M69.4,439.9l2.1,2.1c0.8,0.8,2,1.3,3.4,1.4l0.3,0c1.9,0.2,12.7,0.7,34.6-10.3
		c27.9-14,61-40.1,98.5-77.5c17.7-17.7,19.5-33,19.3-63.4c-0.1-1.6-0.8-3-2-4.2l-0.4-0.4l-0.3-0.4c-1.2-1.6-3-2.7-4.7-2.7
		c-30.6-0.2-51.5,5.9-62.3,18.1c-0.5,0.6-0.9,1-1.2,1.4C72,388.6,68.5,431,68.4,436.4C68.5,437.7,68.8,438.9,69.4,439.9z"/>
</g>
<g>
	<path class="st0" d="M234.7,291.9c0.2,29.9-1.2,48.7-21.4,68.9c-89.7,89.7-131.5,90.7-139,89.9c-3.1-0.2-6-1.4-8-3.5l164.3-164.3
		C233.1,285.3,234.5,288.4,234.7,291.9z"/>
	<path class="st1" d="M76.7,458c-1.2,0-2.2-0.1-3-0.1c-4.8-0.4-9.3-2.3-12.6-5.6l-5.2-5.2l174.6-174.6l5.2,5.2
		c3.8,3.8,5.9,8.6,6.2,13.8l0,0.4c0.2,30.3-1.3,51.8-23.6,74.1c-38.5,38.5-72.9,65.5-102.2,80.2C96.1,456.3,83.2,458,76.7,458z
		 M227.4,296.3l-147,147c5.5-0.7,15-3,29.2-10.1c27.9-14,61-40.1,98.5-77.5C225,338.7,227.4,324,227.4,296.3z"/>
</g>
</svg>
