<?xml version="1.0" encoding="utf-8"?>
<!-- Generator: Adobe Illustrator 23.0.6, SVG Export Plug-In . SVG Version: 6.00 Build 0)  -->
<svg version="1.1" id="Capa_1" xmlns="http://www.w3.org/2000/svg" xmlns:xlink="http://www.w3.org/1999/xlink" x="0px" y="0px"
	 viewBox="0 0 512 512" style="enable-background:new 0 0 512 512;" xml:space="preserve">
<style type="text/css">
	.st0{fill:#50FFC9;}
	.st1{fill:#E0AA75;}
	.st2{fill:#9E7B52;}
</style>
<g>
	<path class="st0" d="M504.7,55.8c0-23.6-19.6-42.8-43.7-42.8H51C26.9,13,7.3,32.1,7.3,55.8v85.6l9.7,9.5h478
		c3.8-3.7,5.9-5.8,9.7-9.5V55.8z"/>
	<path d="M498,158H14L0,144.3V55.8C0,28.2,22.9,5.8,51,5.8h410c28.1,0,51,22.4,51,49.9v88.6L498,158z M20,143.8h472l5.4-5.3V55.8
		c0-19.7-16.3-35.7-36.4-35.7H51c-20.1,0-36.4,16-36.4,35.7v82.7L20,143.8z"/>
</g>
<g>
	<path class="st0" d="M504.7,55.8v85.6c-3.8,3.7-5.9,5.8-9.7,9.5H256V13h205C485.1,13,504.7,32.1,504.7,55.8z"/>
	<path d="M498,158H248.7V5.8H461c28.1,0,51,22.4,51,49.9v88.6L498,158z M263.3,143.8H492l5.4-5.3V55.8c0-19.7-16.3-35.7-36.4-35.7
		H263.3V143.8z"/>
</g>
<g>
	<path class="st1" d="M430.9,70h-87.4c-8,0-14.6,6.4-14.6,14.3s6.5,14.3,14.6,14.3h87.4c8,0,14.6-6.4,14.6-14.3S438.9,70,430.9,70z"
		/>
	<path d="M430.9,105.7h-87.4c-12.1,0-21.9-9.6-21.9-21.4s9.8-21.4,21.9-21.4h87.4c12.1,0,21.9,9.6,21.9,21.4
		S442.9,105.7,430.9,105.7z M343.4,77.2c-4,0-7.3,3.2-7.3,7.1s3.3,7.1,7.3,7.1h87.4c4,0,7.3-3.2,7.3-7.1s-3.3-7.1-7.3-7.1H343.4z"/>
</g>
<g>
	<ellipse class="st1" cx="197.7" cy="84.3" rx="14.6" ry="14.3"/>
	<path d="M197.7,105.7c-12.1,0-21.9-9.6-21.9-21.4s9.8-21.4,21.9-21.4s21.9,9.6,21.9,21.4S209.8,105.7,197.7,105.7z M197.7,77.2
		c-4,0-7.3,3.2-7.3,7.1s3.3,7.1,7.3,7.1s7.3-3.2,7.3-7.1S201.7,77.2,197.7,77.2z"/>
</g>
<g>
	<ellipse class="st2" cx="139.4" cy="84.3" rx="14.6" ry="14.3"/>
	<path d="M139.4,105.7c-12.1,0-21.9-9.6-21.9-21.4s9.8-21.4,21.9-21.4s21.9,9.6,21.9,21.4S151.5,105.7,139.4,105.7z M139.4,77.2
		c-4,0-7.3,3.2-7.3,7.1s3.3,7.1,7.3,7.1c4,0,7.3-3.2,7.3-7.1S143.4,77.2,139.4,77.2z"/>
</g>
<g>
	<ellipse class="st1" cx="81.1" cy="84.3" rx="14.6" ry="14.3"/>
	<path d="M81.1,105.7c-12.1,0-21.9-9.6-21.9-21.4s9.8-21.4,21.9-21.4S103,72.5,103,84.3S93.2,105.7,81.1,105.7z M81.1,77.2
		c-4,0-7.3,3.2-7.3,7.1s3.3,7.1,7.3,7.1c4,0,7.3-3.2,7.3-7.1S85.1,77.2,81.1,77.2z"/>
</g>
<g>
	<path class="st0" d="M7.3,141.4v313.9c0,23.6,19.6,42.8,43.7,42.8h410c24.1,0,43.7-19.2,43.7-42.8V141.4H7.3z"/>
	<path d="M461,505.3H51c-28.1,0-51-22.4-51-49.9V134.2h512v321.1C512,482.9,489.1,505.3,461,505.3z M14.6,148.5v306.8
		C14.6,475,30.9,491,51,491h410c20.1,0,36.4-16,36.4-35.7V148.5H14.6z"/>
</g>
<g>
	<path class="st2" d="M305.5,199.6c-7.4-3.1-16,0.3-19.1,7.5l-87.4,199.8c-3.2,7.2,0.3,15.6,7.7,18.7c7.4,3.1,16-0.3,19.1-7.5
		l87.4-199.8C316.3,211.1,312.9,202.7,305.5,199.6L305.5,199.6z"/>
	<path d="M212.3,433.9c-2.9,0-5.8-0.6-8.6-1.7c-5.4-2.3-9.5-6.4-11.7-11.7c-2.2-5.3-2.1-11.1,0.2-16.4l87.4-199.8
		c4.7-10.8,17.6-15.9,28.7-11.2l0,0c5.4,2.3,9.5,6.4,11.7,11.7c2.2,5.3,2.1,11.1-0.2,16.4l-87.4,199.8
		C228.8,429.1,220.7,433.9,212.3,433.9z M299.7,205.6c-2.8,0-5.5,1.6-6.7,4.3l-87.4,199.8c-0.8,1.8-0.8,3.7-0.1,5.5
		c0.7,1.8,2.1,3.2,3.9,3.9c3.7,1.5,8-0.1,9.6-3.7l87.4-199.8c0.8-1.8,0.8-3.7,0.1-5.5s-2.1-3.2-3.9-3.9
		C301.7,205.8,300.7,205.6,299.7,205.6z"/>
</g>
<g>
	<path class="st2" d="M177.7,358.6L119,312.6l58.6-45.9c6.3-4.9,7.3-13.9,2.3-20.1c-5-6.2-14.2-7.2-20.5-2.2l-72.9,57.1
		c-7.3,5.7-7.3,16.6,0,22.3l72.9,57.1c6.3,4.9,15.5,3.9,20.5-2.2C185,372.5,184,363.5,177.7,358.6L177.7,358.6z"/>
	<path d="M168.5,391.1c-4.9,0-9.7-1.6-13.6-4.7L82,329.3c-5.2-4.1-8.2-10.2-8.2-16.7c0-6.5,3-12.6,8.2-16.7l72.9-57.1
		c4.6-3.6,10.3-5.2,16.1-4.6c5.8,0.6,11,3.4,14.7,7.9c3.6,4.5,5.3,10.1,4.7,15.7c-0.6,5.7-3.5,10.8-8.1,14.4l-51.5,40.4l51.5,40.4
		c9.4,7.4,10.9,20.9,3.4,30.1c-3.6,4.5-8.9,7.3-14.7,7.9C170.2,391.1,169.3,391.1,168.5,391.1z M168.5,248.4c-1.6,0-3.2,0.5-4.5,1.6
		l-72.9,57.1c-1.7,1.4-2.7,3.4-2.7,5.6c0,2.2,1,4.2,2.7,5.6l72.9,57.1c1.5,1.2,3.4,1.7,5.4,1.5c1.9-0.2,3.7-1.1,4.9-2.6
		c2.5-3.1,2-7.6-1.1-10l0,0l-65.8-51.5l65.8-51.5c1.5-1.2,2.5-2.9,2.7-4.8s-0.3-3.8-1.6-5.2c-1.2-1.5-3-2.4-4.9-2.6
		C169.1,248.4,168.8,248.4,168.5,248.4z"/>
</g>
<g>
	<path class="st2" d="M425.4,301.5l-72.9-57.1c-6.3-4.9-15.5-3.9-20.5,2.2c-5,6.2-4,15.1,2.3,20.1l58.6,45.9l-58.6,45.9
		c-6.3,4.9-7.3,13.9-2.3,20.1c5,6.2,14.2,7.1,20.5,2.2l72.9-57.1C432.7,318.1,432.7,307.2,425.4,301.5z"/>
	<path d="M343.5,391.1c-0.8,0-1.6,0-2.4-0.1c-5.8-0.6-11-3.4-14.7-7.9c-3.6-4.5-5.3-10.1-4.7-15.7c0.6-5.7,3.5-10.8,8.1-14.4
		l51.5-40.4l-51.5-40.4c-4.6-3.6-7.4-8.7-8.1-14.3c-0.6-5.7,1-11.3,4.7-15.7c3.6-4.5,8.9-7.3,14.7-7.9c5.8-0.6,11.5,1,16.1,4.6
		l72.9,57.1l0,0c5.2,4.1,8.2,10.2,8.2,16.7s-3,12.6-8.2,16.7l-72.9,57.1C353.2,389.5,348.4,391.1,343.5,391.1z M343.5,248.4
		c-0.3,0-0.5,0-0.8,0c-1.9,0.2-3.7,1.1-4.9,2.6c-1.2,1.5-1.8,3.4-1.6,5.2c0.2,1.9,1.2,3.6,2.7,4.8l65.8,51.5l-65.8,51.5
		c-1.5,1.2-2.5,2.9-2.7,4.8c-0.2,1.9,0.3,3.8,1.6,5.2c1.2,1.5,3,2.4,4.9,2.6c1.9,0.2,3.8-0.3,5.4-1.5l72.9-57.1
		c1.7-1.4,2.7-3.4,2.7-5.6c0-2.2-1-4.2-2.7-5.6l0,0L348,250C346.7,248.9,345.1,248.4,343.5,248.4z"/>
</g>
</svg>
